<?xml version="1.0" standalone="no"?>
<!DOCTYPE svg PUBLIC "-//W3C//DTD SVG 20010904//EN"
 "http://www.w3.org/TR/2001/REC-SVG-20010904/DTD/svg10.dtd">
<svg version="1.0" xmlns="http://www.w3.org/2000/svg"
 width="1740.000000pt" height="1740.000000pt" viewBox="0 0 1740.000000 1740.000000"
 preserveAspectRatio="xMidYMid meet">
<metadata>
Created by potrace 1.14, written by Peter Selinger 2001-2017
</metadata>
<g transform="translate(0.000000,1740.000000) scale(0.100000,-0.100000)"
fill="#000000" stroke="none">
<path d="M8497 17324 c-2 -2 -28 -6 -59 -9 -30 -3 -66 -8 -79 -11 -13 -3 -40
-8 -59 -11 -19 -3 -37 -8 -40 -12 -3 -4 -12 -6 -20 -6 -8 1 -21 -4 -29 -9 -8
-6 -16 -10 -18 -8 -6 4 -58 -10 -70 -21 -7 -5 -13 -6 -13 -3 0 4 -10 1 -22 -6
-13 -7 -27 -13 -33 -14 -16 -1 -90 -38 -93 -47 -2 -4 -8 -5 -13 -1 -5 3 -9 0
-9 -5 0 -6 -3 -10 -7 -9 -13 3 -63 -25 -63 -34 0 -5 -4 -7 -9 -4 -5 3 -14 -1
-21 -9 -7 -8 -19 -15 -26 -15 -8 0 -14 -4 -14 -10 0 -5 -6 -10 -13 -10 -8 0
-24 -11 -37 -25 -13 -14 -25 -23 -28 -21 -2 3 -14 -6 -27 -20 -12 -13 -27 -24
-33 -24 -5 0 -13 -7 -16 -16 -3 -8 -10 -12 -16 -9 -5 3 -10 1 -10 -5 0 -15
-26 -41 -34 -33 -3 4 -6 -1 -6 -10 0 -10 -7 -17 -15 -17 -8 0 -15 -7 -15 -16
0 -8 -4 -12 -10 -9 -5 3 -10 -1 -10 -9 0 -8 -9 -20 -19 -26 -11 -5 -23 -19
-26 -31 -4 -11 -9 -18 -12 -15 -6 6 -53 -60 -53 -74 0 -6 -5 -9 -12 -7 -7 1
-12 -4 -13 -11 0 -7 -7 -17 -15 -22 -8 -5 -11 -10 -6 -10 6 0 1 -7 -10 -15
-10 -8 -15 -15 -10 -15 4 0 -4 -16 -18 -35 -16 -20 -24 -41 -20 -48 4 -6 3 -8
-1 -4 -9 8 -45 -56 -45 -80 0 -7 -4 -13 -10 -13 -5 0 -10 -9 -10 -20 0 -11 -5
-20 -12 -20 -6 0 -8 -3 -5 -7 4 -3 2 -12 -4 -20 -6 -7 -9 -13 -5 -13 4 0 0
-13 -9 -30 -9 -16 -13 -30 -9 -30 4 0 1 -7 -6 -15 -6 -8 -9 -19 -5 -25 3 -5 1
-10 -4 -10 -6 0 -10 -3 -10 -7 1 -5 1 -10 -1 -13 -1 -3 -3 -16 -6 -29 -2 -14
-8 -29 -12 -35 -5 -6 -7 -21 -6 -33 0 -13 -2 -23 -6 -23 -4 0 -7 -6 -7 -12 -1
-7 -10 -39 -22 -72 -11 -32 -18 -63 -14 -69 3 -5 1 -7 -5 -3 -9 5 -27 -41 -22
-60 1 -4 -4 -10 -12 -15 -7 -5 -13 -12 -13 -16 -1 -15 -30 -73 -37 -73 -3 0
-5 -8 -4 -17 2 -10 -1 -21 -6 -24 -5 -3 -10 -12 -12 -20 -1 -8 -7 -24 -14 -35
-6 -12 -8 -24 -5 -28 3 -3 1 -6 -5 -6 -7 0 -11 -3 -10 -7 3 -15 -51 -134 -66
-144 -5 -4 -6 -11 -2 -17 3 -6 2 -12 -3 -14 -5 -1 -11 -10 -13 -18 -2 -8 -9
-21 -16 -28 -7 -8 -10 -18 -7 -23 4 -5 1 -9 -5 -9 -6 0 -8 -4 -5 -10 3 -5 1
-10 -4 -10 -6 0 -10 -3 -9 -7 3 -16 -15 -63 -24 -63 -5 0 -7 -4 -3 -9 3 -5 1
-12 -5 -16 -6 -4 -8 -10 -5 -15 3 -4 -2 -11 -11 -14 -8 -3 -13 -10 -9 -15 3
-6 -3 -14 -12 -20 -10 -6 -14 -11 -9 -11 5 0 1 -10 -10 -22 -10 -12 -13 -18
-6 -14 11 7 11 4 0 -13 -7 -12 -15 -21 -18 -21 -3 0 -7 -10 -7 -22 -1 -13 -7
-24 -13 -26 -5 -2 -10 -12 -10 -22 0 -10 -6 -25 -13 -32 -7 -7 -14 -15 -14
-18 -1 -19 -16 -50 -24 -50 -6 0 -7 -5 -4 -10 3 -6 -1 -13 -9 -16 -9 -3 -14
-10 -11 -14 3 -5 0 -12 -5 -15 -12 -7 -34 -55 -32 -67 1 -5 -2 -8 -6 -8 -9 0
-37 -70 -34 -82 1 -5 -2 -8 -8 -8 -5 0 -19 -20 -30 -45 -11 -25 -24 -45 -29
-45 -8 0 -24 -38 -22 -52 1 -5 -3 -8 -7 -8 -7 0 -31 -39 -37 -60 -6 -22 -30
-60 -37 -60 -5 0 -7 -4 -3 -9 3 -5 0 -15 -7 -23 -22 -23 -89 -128 -81 -128 4
0 -1 -6 -12 -13 -10 -8 -15 -19 -12 -24 4 -6 0 -13 -8 -17 -8 -3 -15 -12 -15
-19 0 -8 -9 -26 -21 -41 -11 -14 -18 -26 -15 -26 3 0 -2 -9 -11 -19 -35 -38
-42 -49 -36 -55 4 -3 2 -6 -4 -6 -5 0 -18 -16 -29 -35 -10 -19 -23 -35 -28
-35 -5 0 -6 -3 -3 -7 4 -3 1 -13 -7 -22 -8 -9 -16 -22 -18 -30 -3 -13 -9 -22
-52 -73 -8 -9 -12 -19 -9 -22 3 -3 -2 -8 -11 -12 -9 -3 -16 -12 -16 -20 0 -8
-5 -14 -12 -14 -6 0 -8 -3 -5 -7 4 -3 -2 -13 -13 -20 -11 -8 -18 -19 -15 -24
4 -5 2 -9 -3 -9 -5 0 -17 -15 -25 -32 -9 -18 -25 -43 -36 -54 -11 -12 -17 -25
-14 -28 4 -3 1 -6 -5 -6 -7 0 -12 -4 -12 -10 0 -5 -12 -23 -27 -39 -35 -37
-85 -106 -86 -118 0 -4 -7 -13 -16 -20 -9 -7 -13 -13 -9 -13 4 0 -7 -15 -23
-32 -17 -18 -35 -43 -40 -55 -4 -13 -16 -23 -25 -23 -10 0 -14 -3 -11 -7 4 -3
-4 -16 -18 -28 -13 -13 -21 -26 -18 -29 4 -3 1 -6 -5 -6 -7 0 -12 -6 -12 -14
0 -8 -7 -16 -15 -20 -8 -3 -15 -12 -15 -20 0 -8 -3 -16 -7 -18 -5 -1 -26 -25
-48 -53 -22 -27 -59 -69 -82 -94 -23 -24 -41 -46 -40 -50 1 -3 -7 -16 -18 -27
-53 -58 -75 -85 -75 -96 0 -6 -3 -9 -6 -5 -7 7 -34 -17 -34 -31 0 -5 -8 -16
-17 -23 -16 -12 -17 -12 -8 1 6 9 2 7 -7 -5 -9 -11 -24 -28 -32 -37 -9 -10
-13 -18 -10 -18 4 0 -4 -10 -17 -23 -13 -13 -41 -42 -61 -65 -20 -24 -41 -43
-45 -42 -4 0 -8 -3 -8 -7 -1 -5 -25 -33 -55 -64 -30 -31 -64 -68 -75 -82 -11
-15 -26 -27 -34 -27 -8 0 -12 -3 -8 -6 8 -8 -25 -44 -35 -38 -4 3 -8 -2 -8
-10 0 -9 -4 -16 -10 -16 -13 0 -50 -37 -50 -49 0 -6 -5 -13 -12 -17 -7 -5 -9
-2 -4 7 4 8 -2 2 -14 -13 -30 -39 -77 -88 -84 -88 -3 0 -26 -20 -51 -45 -25
-25 -45 -43 -45 -41 0 3 -10 -5 -23 -17 -13 -12 -22 -25 -20 -29 2 -4 -6 -9
-17 -13 -11 -4 -18 -11 -15 -16 4 -5 2 -9 -3 -9 -5 0 -22 -12 -39 -27 -54 -50
-113 -100 -113 -96 0 2 -22 -18 -48 -44 -57 -57 -87 -82 -153 -129 -27 -20
-49 -40 -49 -45 0 -5 -5 -9 -11 -9 -15 0 -39 -26 -32 -34 4 -3 0 -6 -8 -6 -8
0 -35 -19 -60 -42 -26 -24 -53 -44 -60 -46 -8 -2 -22 -12 -31 -24 -10 -11 -18
-16 -18 -12 0 5 -7 0 -16 -11 -8 -11 -18 -20 -22 -20 -6 0 -48 -35 -86 -71 -6
-5 -19 -13 -28 -17 -10 -3 -18 -11 -18 -17 0 -6 -4 -8 -10 -5 -5 3 -10 1 -10
-5 0 -6 -4 -8 -10 -5 -5 3 -10 -1 -10 -9 0 -10 -6 -13 -17 -9 -11 4 -14 3 -9
-5 4 -7 1 -12 -8 -12 -9 0 -16 -4 -16 -10 0 -5 -5 -10 -10 -10 -6 0 -20 -9
-32 -20 -12 -10 -26 -16 -31 -13 -6 4 -8 0 -5 -8 4 -10 -4 -19 -21 -27 -15 -7
-37 -21 -49 -32 -12 -12 -22 -18 -22 -15 0 4 -7 0 -15 -7 -32 -29 -45 -39 -45
-33 0 3 -18 -7 -40 -21 -22 -15 -40 -31 -40 -36 0 -5 -5 -6 -10 -3 -6 3 -13
-1 -16 -9 -3 -9 -10 -16 -16 -16 -5 0 -27 -14 -48 -31 -21 -17 -43 -28 -49
-24 -6 3 -11 -1 -11 -10 0 -11 -5 -15 -16 -11 -8 3 -12 2 -9 -4 3 -6 -1 -10
-9 -10 -9 0 -16 -5 -16 -11 0 -5 -5 -7 -10 -4 -6 3 -13 -1 -16 -9 -3 -9 -10
-13 -15 -10 -5 3 -9 0 -9 -5 0 -6 -7 -11 -15 -11 -9 0 -18 -7 -21 -15 -4 -8
-10 -12 -15 -9 -5 3 -9 1 -9 -4 0 -5 -20 -20 -45 -33 -25 -13 -45 -28 -45 -32
0 -5 -4 -5 -10 -2 -5 3 -10 1 -10 -6 0 -7 -3 -10 -6 -6 -5 5 -33 -11 -129 -73
-60 -39 -141 -83 -152 -83 -7 0 -13 -4 -13 -8 0 -4 -10 -11 -22 -14 -13 -4
-36 -17 -53 -29 -16 -12 -42 -28 -57 -35 -16 -8 -28 -18 -28 -23 0 -5 -4 -7
-9 -3 -5 3 -17 -2 -25 -11 -9 -8 -16 -12 -16 -8 0 5 -5 3 -12 -4 -7 -7 -20
-12 -30 -12 -10 0 -21 -7 -24 -15 -4 -8 -9 -13 -14 -10 -4 2 -28 -9 -54 -25
-25 -16 -46 -26 -46 -22 0 4 -4 1 -9 -6 -4 -7 -17 -15 -27 -16 -10 -2 -18 -9
-17 -14 2 -6 -4 -9 -12 -6 -8 4 -15 1 -15 -5 0 -6 -3 -10 -7 -9 -5 0 -26 -7
-48 -17 -22 -10 -43 -18 -47 -17 -5 1 -8 -3 -8 -9 0 -5 -4 -8 -9 -5 -5 3 -14
-1 -21 -10 -7 -8 -19 -13 -26 -10 -7 3 -15 -2 -18 -10 -3 -9 -10 -13 -15 -9
-5 3 -12 1 -16 -5 -7 -11 -111 -62 -138 -67 -10 -2 -25 -10 -33 -18 -18 -17
-28 -20 -19 -4 4 6 -2 5 -14 -3 -12 -7 -21 -17 -21 -21 0 -5 -7 -7 -15 -4 -8
4 -17 2 -20 -3 -10 -16 -181 -91 -189 -82 -3 3 -6 0 -6 -7 0 -8 -6 -11 -16 -7
-9 3 -12 2 -9 -5 4 -6 1 -9 -6 -8 -19 2 -99 -32 -99 -43 0 -4 -9 -8 -20 -8
-11 0 -20 -4 -20 -10 0 -5 -7 -6 -17 -3 -11 4 -14 3 -9 -5 6 -11 -5 -17 -26
-13 -5 0 -8 -3 -8 -9 0 -5 -7 -10 -15 -10 -8 0 -15 -5 -15 -11 0 -5 -4 -8 -8
-5 -5 3 -16 -4 -25 -15 -9 -10 -24 -19 -32 -19 -8 0 -14 -3 -13 -7 2 -5 -1
-10 -7 -12 -20 -7 -62 -41 -120 -97 -33 -32 -63 -58 -67 -56 -5 1 -8 -5 -8
-14 0 -8 -4 -12 -10 -9 -5 3 -10 -3 -10 -15 0 -12 -4 -18 -10 -15 -5 3 -10 1
-10 -5 0 -6 -4 -8 -10 -5 -5 3 -7 0 -4 -9 3 -9 -3 -17 -16 -21 -12 -4 -19 -9
-16 -12 3 -4 -7 -19 -23 -34 -16 -15 -26 -30 -23 -34 4 -4 -1 -11 -11 -16 -9
-6 -15 -14 -12 -20 4 -5 -1 -9 -10 -9 -9 0 -14 -4 -11 -8 3 -5 -8 -27 -24 -49
-16 -22 -27 -43 -23 -47 3 -3 1 -6 -6 -6 -7 0 -9 -5 -6 -10 3 -6 -1 -13 -9
-16 -9 -3 -13 -10 -10 -15 3 -5 0 -9 -6 -9 -6 0 -8 -5 -5 -10 3 -5 2 -10 -4
-10 -6 0 -8 -7 -5 -15 4 -8 1 -15 -6 -15 -6 0 -8 -4 -5 -10 3 -5 1 -10 -4 -10
-6 0 -10 -3 -9 -7 1 -5 -3 -18 -10 -29 -6 -12 -8 -24 -5 -28 3 -3 1 -6 -6 -6
-7 0 -9 -4 -6 -10 3 -5 1 -10 -5 -10 -6 0 -8 -5 -5 -10 4 -6 1 -17 -5 -25 -7
-8 -9 -15 -5 -15 4 0 2 -6 -4 -13 -6 -8 -8 -17 -4 -20 3 -4 2 -7 -4 -7 -6 0
-10 -8 -10 -17 0 -45 -4 -64 -11 -59 -4 3 -7 -8 -6 -25 1 -16 -1 -29 -4 -29
-4 0 -8 -10 -9 -22 0 -13 -4 -45 -8 -73 -3 -27 -7 -77 -9 -110 -1 -34 -6 -66
-10 -73 -4 -7 -3 -12 1 -12 5 0 9 -9 10 -20 1 -13 -2 -18 -9 -14 -7 5 -8 2 -3
-6 4 -7 9 -42 11 -77 2 -36 9 -72 16 -81 10 -13 10 -14 0 -8 -13 8 -11 -10 6
-69 3 -11 6 -29 8 -40 5 -43 30 -134 51 -185 3 -8 7 -20 8 -26 2 -6 13 -33 24
-60 12 -27 22 -51 22 -54 0 -3 7 -15 15 -27 8 -13 11 -23 7 -23 -5 0 -3 -4 4
-8 6 -4 13 -14 15 -22 2 -8 8 -20 13 -27 24 -30 31 -41 54 -85 14 -26 29 -45
33 -42 4 3 8 -1 8 -8 0 -14 35 -62 78 -106 12 -12 22 -27 22 -33 0 -6 5 -7 10
-4 6 3 10 1 10 -5 0 -14 46 -61 53 -54 3 3 8 -4 12 -15 3 -12 11 -21 16 -21 5
0 22 -13 37 -30 16 -16 35 -30 41 -30 7 0 9 -4 6 -10 -3 -5 0 -10 9 -10 8 0
16 -4 18 -9 1 -5 10 -11 17 -13 8 -2 25 -13 36 -25 12 -13 25 -20 28 -16 4 3
7 1 7 -5 0 -7 7 -12 15 -12 8 0 15 -4 15 -10 0 -5 7 -10 15 -10 8 0 15 -5 15
-11 0 -5 4 -7 10 -4 5 3 10 1 10 -5 0 -6 4 -9 9 -6 5 4 11 3 13 -1 4 -10 99
-58 113 -58 6 0 12 -2 15 -5 10 -11 113 -50 131 -50 11 0 19 -4 19 -10 0 -5
11 -10 24 -10 14 0 28 -4 31 -10 3 -5 15 -10 26 -10 10 0 19 -5 19 -10 0 -6 6
-10 13 -9 6 1 26 -3 42 -10 17 -7 35 -14 40 -15 6 -1 21 -8 33 -15 13 -7 26
-10 30 -7 3 3 14 -1 24 -11 10 -9 18 -13 18 -9 0 4 13 -2 29 -13 15 -11 30
-18 33 -16 3 3 27 -5 54 -17 27 -12 52 -23 57 -24 4 -1 10 -3 15 -4 4 -1 10
-2 15 -1 4 0 7 -3 7 -9 0 -5 9 -10 20 -10 11 0 20 -4 20 -10 0 -5 7 -7 15 -4
8 4 15 1 15 -5 0 -6 3 -10 8 -9 9 2 58 -19 235 -100 48 -23 87 -38 87 -36 0 3
7 -2 16 -10 8 -9 20 -14 25 -11 5 4 9 2 9 -3 0 -5 10 -13 23 -17 12 -4 24 -8
27 -10 3 -1 20 -8 38 -16 17 -7 32 -17 32 -21 0 -4 7 -8 15 -8 18 0 57 -20 67
-35 4 -5 8 -6 8 -1 0 5 7 3 15 -4 8 -7 15 -9 15 -4 0 5 5 1 11 -9 6 -9 14 -15
20 -12 5 4 9 1 9 -5 0 -6 5 -8 10 -5 5 3 10 1 10 -5 0 -7 7 -10 15 -6 8 3 15
1 15 -4 0 -6 7 -10 15 -10 8 0 15 -5 15 -11 0 -5 5 -7 10 -4 6 3 10 1 10 -5 0
-6 5 -8 10 -5 5 3 10 1 10 -5 0 -6 4 -9 9 -6 5 4 11 3 13 -1 4 -11 80 -49 90
-45 4 1 8 -2 8 -7 0 -8 45 -34 158 -91 18 -9 30 -19 27 -23 -3 -4 -2 -5 1 -3
3 3 25 -7 47 -20 23 -14 50 -27 60 -31 9 -3 17 -9 17 -14 0 -5 6 -9 13 -9 7 0
23 -9 35 -20 12 -12 22 -18 22 -15 0 3 24 -9 53 -28 28 -18 60 -36 70 -40 9
-3 17 -11 17 -18 0 -6 6 -9 13 -6 7 3 19 -4 25 -14 7 -10 18 -19 26 -19 7 0
19 -7 26 -15 7 -8 16 -13 20 -10 5 3 10 1 12 -3 2 -7 193 -139 256 -177 16
-10 29 -19 56 -42 8 -7 20 -13 25 -13 6 0 14 -6 18 -13 8 -13 68 -54 68 -47 0
2 12 -7 26 -20 39 -37 68 -60 78 -60 5 0 12 -7 15 -16 4 -9 9 -14 12 -12 3 3
19 -7 37 -23 17 -16 38 -29 46 -29 8 0 11 -3 8 -7 -7 -6 19 -29 38 -33 6 -1
22 -15 38 -31 15 -16 29 -29 32 -29 5 0 30 -20 75 -60 70 -62 125 -105 131
-103 4 2 11 -6 14 -17 4 -11 10 -20 14 -20 4 0 21 -13 37 -30 16 -16 32 -30
36 -30 3 0 33 -27 66 -60 34 -33 66 -60 72 -60 6 0 8 -4 5 -10 -3 -5 -2 -10 4
-10 15 0 100 -87 93 -95 -4 -4 -2 -5 5 -3 12 3 293 -277 293 -293 0 -5 7 -9
15 -9 8 0 15 -4 15 -9 0 -9 11 -22 121 -140 32 -35 59 -68 59 -73 0 -5 7 -11
15 -14 8 -4 15 -13 15 -21 0 -8 5 -11 10 -8 6 3 10 1 10 -6 0 -6 11 -22 24
-34 14 -13 22 -26 19 -29 -4 -3 2 -6 12 -6 10 0 15 -3 12 -6 -4 -4 16 -33 44
-65 28 -33 48 -59 45 -59 -4 0 7 -14 24 -30 17 -17 28 -30 25 -30 -3 0 3 -9
13 -19 33 -37 42 -50 42 -61 0 -6 5 -8 10 -5 6 3 10 -1 10 -9 0 -9 4 -16 8
-16 5 0 14 -12 21 -27 7 -15 21 -33 32 -41 10 -7 19 -20 19 -28 0 -8 5 -14 10
-14 6 0 10 -6 10 -14 0 -8 7 -17 16 -20 9 -4 14 -9 11 -12 -3 -3 2 -14 11 -24
28 -31 39 -45 52 -71 7 -13 16 -26 19 -29 4 -3 29 -39 56 -80 28 -41 53 -77
58 -78 4 -2 5 -8 1 -13 -3 -5 -1 -9 5 -9 5 0 13 -9 16 -20 3 -11 12 -26 18
-32 14 -15 68 -104 79 -130 4 -10 12 -18 19 -18 6 0 9 -6 6 -12 -2 -7 5 -21
15 -30 11 -9 19 -20 19 -25 0 -4 10 -24 21 -43 12 -19 21 -38 20 -42 -1 -5 2
-8 7 -8 5 0 14 -13 21 -30 7 -16 17 -30 22 -30 5 0 7 -4 3 -9 -3 -5 0 -15 7
-23 7 -7 21 -29 30 -48 33 -67 96 -181 107 -194 6 -7 8 -16 4 -19 -3 -4 -1 -7
6 -7 7 0 10 -4 6 -9 -3 -5 2 -16 10 -24 8 -9 15 -22 15 -29 0 -8 8 -23 18 -34
9 -10 19 -28 20 -39 2 -11 7 -22 11 -25 9 -6 25 -42 23 -52 -1 -5 3 -8 9 -8 6
0 9 -6 6 -14 -3 -8 -2 -16 3 -18 5 -2 10 -10 12 -18 2 -8 9 -21 16 -28 7 -8
10 -17 7 -21 -2 -5 5 -18 16 -30 12 -12 18 -25 15 -28 -3 -3 6 -25 19 -50 14
-24 25 -50 25 -58 0 -8 5 -15 10 -15 6 0 10 -7 10 -15 0 -8 4 -23 10 -33 8
-14 30 -65 35 -82 1 -3 9 -22 18 -44 9 -21 17 -44 17 -51 0 -7 7 -18 15 -25 9
-7 13 -15 11 -18 -3 -2 0 -14 6 -26 7 -11 13 -23 14 -26 3 -15 32 -85 48 -120
7 -14 12 -32 11 -40 0 -8 4 -18 10 -22 5 -4 10 -11 11 -15 2 -22 18 -69 27
-81 5 -6 6 -12 2 -12 -5 0 0 -10 11 -22 10 -12 13 -18 5 -13 -10 6 -12 4 -5
-6 4 -8 9 -20 11 -28 1 -8 5 -17 10 -20 4 -3 10 -17 11 -30 2 -14 10 -34 18
-46 8 -12 11 -24 8 -27 -3 -4 1 -19 10 -36 8 -16 12 -32 9 -36 -4 -3 -2 -6 4
-6 5 0 10 -6 11 -12 1 -15 7 -37 15 -58 8 -23 49 -149 51 -163 2 -7 8 -23 13
-37 6 -14 8 -31 6 -38 -3 -6 -1 -12 4 -12 5 0 10 -6 11 -12 5 -37 9 -54 14
-63 4 -9 16 -48 23 -80 2 -5 10 -34 18 -62 9 -29 13 -53 9 -53 -4 0 -2 -4 5
-8 7 -4 13 -22 15 -39 1 -17 6 -29 10 -27 4 3 8 -6 8 -19 0 -13 3 -27 8 -31 4
-4 7 -11 8 -14 0 -4 8 -25 18 -47 10 -22 19 -49 22 -59 2 -11 7 -22 12 -25 4
-3 21 -32 37 -63 17 -32 34 -58 38 -58 5 0 5 -4 2 -10 -3 -5 -1 -10 4 -10 6 0
11 -7 11 -15 0 -9 7 -18 15 -21 8 -4 13 -10 10 -14 -3 -4 2 -11 11 -14 9 -4
14 -9 11 -12 -3 -3 8 -19 24 -36 16 -17 26 -34 23 -39 -3 -5 0 -9 6 -9 15 0
40 -25 40 -40 0 -6 4 -9 9 -5 5 3 12 -4 16 -15 4 -11 11 -18 16 -15 5 4 9 2 9
-3 0 -13 58 -71 64 -64 3 3 6 0 6 -7 0 -7 4 -9 10 -6 5 3 10 -1 10 -10 0 -9 9
-19 19 -22 11 -3 22 -11 25 -19 3 -8 13 -14 21 -14 9 0 13 -4 10 -10 -3 -5 0
-10 8 -10 7 0 23 -9 35 -20 12 -12 22 -17 22 -13 0 4 7 -1 15 -11 8 -11 15
-16 15 -12 0 4 7 0 16 -8 8 -9 19 -14 24 -11 4 3 11 -2 14 -11 3 -8 10 -12 16
-9 6 3 13 -1 16 -9 3 -9 10 -14 14 -11 5 3 15 -2 24 -11 9 -8 21 -12 27 -8 8
5 9 3 4 -6 -5 -8 -3 -11 6 -8 8 3 29 -4 47 -14 18 -10 39 -18 47 -18 8 0 15
-4 15 -8 0 -4 10 -9 22 -9 13 -1 24 -7 26 -12 2 -5 10 -7 18 -4 8 3 21 0 29
-7 8 -7 15 -9 15 -5 0 4 7 2 15 -5 8 -6 19 -9 25 -5 5 3 10 2 10 -3 0 -6 9 -8
20 -5 13 3 20 0 20 -8 0 -11 2 -11 10 1 7 12 10 12 10 1 0 -7 6 -11 14 -8 7 3
19 0 25 -6 8 -8 11 -7 11 3 0 11 2 12 8 3 15 -24 371 -35 413 -12 15 8 19 8
15 0 -4 -6 -3 -11 3 -11 5 0 12 4 15 9 3 5 19 8 36 7 16 -1 30 1 30 5 0 3 11
5 25 4 14 -2 25 0 25 4 0 4 10 8 23 9 29 3 48 7 69 16 9 4 22 5 28 1 5 -3 10
-2 10 2 0 5 34 19 75 32 41 13 75 29 75 34 0 6 3 8 6 4 4 -3 28 5 55 19 27 13
51 23 53 22 2 -2 13 5 23 15 11 9 23 14 26 10 4 -3 7 -1 7 6 0 7 14 17 30 22
17 6 30 15 30 21 0 5 5 6 10 3 6 -3 10 -1 10 6 0 7 3 10 6 6 3 -3 14 2 24 11
11 10 30 27 44 39 13 12 27 19 30 16 3 -3 8 2 12 11 3 9 10 16 14 16 5 0 28
18 51 40 24 22 47 40 52 40 4 0 6 4 2 9 -3 5 4 13 16 16 11 4 18 9 15 12 -2 3
11 19 30 36 19 18 34 35 34 40 0 4 11 18 24 30 13 12 25 27 27 32 2 6 8 9 12
7 5 -1 7 3 5 10 -3 7 6 22 19 34 12 11 20 24 16 27 -3 4 -1 7 6 7 7 0 10 4 7
9 -3 5 1 12 10 15 8 3 12 10 9 16 -3 5 -1 10 4 10 6 0 11 7 11 15 0 8 5 15 11
15 5 0 7 5 4 10 -3 6 -2 10 3 10 9 0 25 37 23 53 -1 4 3 7 8 7 5 0 12 7 15 16
4 10 2 13 -7 8 -6 -4 -5 1 4 12 24 28 49 85 43 95 -3 5 0 9 6 9 6 0 9 4 5 9
-3 5 0 13 6 16 5 4 8 13 5 21 -3 8 -1 14 5 14 6 0 8 4 4 9 -3 5 -1 12 4 15 8
5 25 79 24 103 0 7 2 13 6 13 4 0 8 11 9 26 1 14 7 34 12 45 6 11 8 24 5 29
-3 5 -1 11 5 15 6 4 8 11 5 16 -4 5 -1 9 5 9 6 0 9 4 6 9 -3 5 1 27 9 50 8 23
15 45 15 49 0 4 3 16 6 28 3 11 7 27 8 35 2 8 6 22 10 31 4 9 9 25 11 35 2 10
4 18 5 18 2 0 11 35 14 55 1 9 5 21 10 28 4 6 4 12 0 12 -3 0 -1 7 6 15 6 8 9
19 5 25 -3 5 -2 10 3 10 8 0 19 33 24 78 1 6 5 12 10 12 4 0 7 3 6 8 -2 10 11
60 28 104 8 21 11 38 8 38 -4 0 -1 7 6 15 6 8 9 19 5 25 -3 5 -1 10 5 10 6 0
9 4 5 9 -3 5 -1 12 4 15 7 5 20 51 21 71 0 3 6 18 13 33 8 15 13 35 12 45 -2
9 1 15 6 11 5 -3 10 -2 10 3 1 4 3 17 5 28 6 41 51 154 59 147 5 -4 5 -2 2 4
-7 12 38 149 55 171 5 7 7 17 3 23 -3 5 1 13 9 16 9 3 13 10 11 15 -3 5 1 22
10 39 8 16 16 33 17 37 0 5 7 21 14 38 7 16 10 33 8 37 -3 5 0 8 5 8 6 0 11 6
11 13 0 13 59 159 78 193 6 12 8 24 5 28 -3 3 -1 6 5 6 7 0 11 3 10 8 -1 4 4
21 11 37 12 32 19 51 23 63 1 4 8 13 15 20 7 8 11 17 8 22 -3 5 -1 11 5 15 6
4 8 11 5 16 -4 5 -1 9 5 9 6 0 8 5 5 10 -3 6 -1 10 4 10 6 0 11 5 11 11 0 15
32 83 43 90 5 3 8 8 6 10 -4 8 25 79 33 79 4 0 8 7 8 15 0 9 7 27 16 40 9 14
12 25 8 25 -5 0 0 7 11 16 11 8 19 17 17 20 -5 7 76 172 88 179 6 3 7 11 4 17
-4 6 -2 13 3 17 6 3 28 40 50 81 66 124 95 174 104 185 5 5 9 16 9 25 0 8 11
28 25 43 14 15 23 27 19 27 -4 0 1 9 11 20 10 11 15 20 11 20 -4 0 0 7 8 16 9
8 14 20 11 25 -4 5 -2 9 4 9 6 0 20 18 31 40 11 22 25 40 31 40 6 0 8 4 4 9
-3 5 1 16 9 24 8 8 12 17 9 21 -3 3 2 8 11 12 9 3 16 10 16 16 0 14 163 258
172 258 5 0 6 4 3 10 -3 5 -1 10 4 10 6 0 11 5 11 10 0 6 5 16 10 23 39 46 50
61 50 68 0 4 13 21 30 37 16 16 26 32 23 36 -3 3 2 8 11 12 9 3 16 11 16 18 0
6 17 29 38 51 20 21 30 35 22 31 -8 -5 -4 3 10 17 14 13 34 37 45 52 11 16 26
34 33 41 6 7 12 15 12 18 0 13 34 45 42 40 5 -3 7 -1 6 4 -3 10 56 85 108 139
18 17 30 34 27 37 -3 2 5 9 16 16 12 6 21 17 21 25 0 8 6 15 13 15 8 0 20 11
27 25 7 14 20 25 28 25 9 0 13 3 9 6 -11 11 356 367 503 489 25 21 48 42 52
49 4 6 8 8 8 5 0 -4 17 9 37 27 20 19 44 34 52 34 8 0 12 3 8 6 -3 4 42 42
101 86 59 43 115 86 125 93 9 8 21 15 27 15 5 0 15 9 23 20 8 11 16 18 18 15
3 -2 18 7 33 20 16 14 33 22 37 19 5 -3 9 0 9 6 0 6 8 14 18 17 9 4 22 12 29
17 32 28 41 34 61 40 12 4 22 12 22 17 0 5 5 9 11 9 6 0 34 16 63 35 29 19 58
35 64 35 6 0 16 8 21 18 6 9 11 14 11 10 0 -9 103 52 108 64 2 4 10 4 18 1 8
-3 14 0 14 7 0 6 5 8 10 5 6 -3 10 -2 10 4 0 5 16 15 35 21 19 6 35 15 35 19
0 4 18 14 40 21 22 7 40 16 40 19 0 4 27 17 60 30 33 13 60 29 60 34 0 6 2 8
6 5 3 -3 32 7 65 23 32 16 61 29 63 29 2 0 21 8 42 17 22 9 42 16 47 15 4 -1
7 3 7 9 0 5 5 7 10 4 6 -3 10 -1 10 4 0 6 8 11 18 11 9 0 29 6 44 14 33 18
101 41 111 38 4 -1 7 3 7 9 0 5 5 7 10 4 6 -3 10 -1 10 6 0 7 3 10 6 6 3 -3
29 3 58 15 28 11 57 21 64 21 6 0 12 4 12 9 0 5 4 7 8 4 5 -3 20 1 35 9 14 7
28 11 31 8 3 -3 12 0 20 6 8 7 27 14 42 17 15 3 32 8 38 12 6 4 18 7 26 8 8 0
23 4 33 7 66 26 77 29 105 31 12 0 22 4 22 9 0 4 9 7 21 7 11 0 28 4 37 9 9 5
31 11 47 14 17 3 46 11 65 17 19 7 44 13 55 15 11 2 46 10 79 19 32 9 63 13
67 10 5 -3 9 -1 9 5 0 6 7 8 15 5 8 -4 15 -2 15 3 0 5 16 9 35 8 19 0 35 2 35
5 0 4 6 7 13 7 10 1 26 4 82 16 6 2 16 6 23 10 7 5 12 3 12 -5 0 -8 3 -9 8 -3
4 6 14 11 22 11 8 0 31 4 50 8 47 10 90 17 118 18 12 1 22 5 22 9 0 3 11 5 25
4 14 -2 25 1 25 5 0 5 11 7 25 4 14 -2 25 0 25 5 0 6 9 8 20 6 11 -2 20 0 20
4 0 8 10 11 88 27 17 3 32 10 32 15 0 5 8 9 18 9 10 0 23 5 30 12 7 7 12 8 12
3 0 -4 10 0 22 11 12 10 18 13 14 7 -4 -7 -5 -13 -2 -13 2 0 11 6 18 13 7 6
41 26 75 43 35 17 60 34 56 38 -3 3 3 6 15 6 12 0 22 5 22 10 0 6 7 10 15 10
8 0 15 5 15 10 0 6 6 10 14 10 8 0 17 7 20 16 3 8 10 13 15 9 6 -3 15 4 21 16
7 11 14 18 17 15 3 -2 17 8 32 23 14 15 34 31 44 34 9 4 22 17 27 29 5 13 9
20 9 16 1 -4 14 5 30 20 15 15 26 30 24 35 -2 4 4 7 13 7 10 0 15 2 12 5 -3 3
6 18 21 34 38 40 66 75 66 84 0 4 7 12 15 17 8 5 11 10 7 10 -4 0 -3 6 3 13
38 45 49 61 60 87 7 16 16 28 19 25 4 -2 8 2 9 10 1 8 3 22 4 30 1 8 8 17 16
20 8 3 11 12 8 20 -3 8 -1 15 3 15 9 0 35 59 32 73 0 4 3 7 9 7 5 0 7 7 4 15
-4 8 -1 15 6 15 7 0 10 7 6 15 -3 8 -2 15 2 15 4 0 8 10 9 22 1 11 8 25 15 29
7 5 9 9 4 9 -5 0 -3 7 4 15 10 12 10 15 0 15 -9 0 -10 3 -1 13 6 8 8 17 4 20
-3 4 -1 7 6 7 8 0 10 7 6 20 -3 11 -2 20 4 20 5 0 8 9 6 20 -2 11 0 20 5 20 4
0 8 126 8 280 0 154 -4 280 -8 280 -5 0 -7 9 -5 20 2 11 0 20 -5 20 -4 0 -7 8
-5 18 1 9 -3 23 -9 31 -9 12 -8 13 4 6 12 -7 13 -6 3 7 -7 8 -10 18 -6 21 3 4
1 7 -5 7 -7 0 -12 11 -12 25 0 14 -3 25 -8 25 -4 0 -8 14 -9 32 0 18 -6 34
-12 36 -6 2 -11 15 -11 28 0 13 -4 24 -10 24 -5 0 -10 8 -10 18 0 10 -6 24
-12 31 -7 6 -13 15 -13 19 -2 20 -18 52 -26 52 -6 0 -8 4 -4 9 3 5 0 16 -7 23
-19 20 -38 50 -44 71 -4 9 -11 17 -17 17 -6 0 -8 3 -4 6 5 5 -10 27 -40 59 -7
8 -13 18 -13 24 0 6 -9 16 -20 23 -11 7 -20 17 -20 22 0 5 -12 19 -27 32 -16
13 -25 24 -21 24 4 0 -3 10 -15 23 -12 13 -25 22 -29 20 -5 -2 -8 3 -8 11 0 9
-4 16 -10 16 -5 0 -23 14 -38 30 -16 17 -33 30 -37 30 -5 0 -22 15 -38 33 -16
17 -23 23 -16 12 14 -21 11 -19 -63 50 -29 27 -44 33 -32 13 5 -7 -9 2 -29 20
-21 17 -44 32 -52 32 -8 0 -15 4 -15 8 0 4 -25 19 -55 32 -30 13 -55 29 -55
34 0 5 -3 6 -6 3 -4 -4 -19 0 -33 7 -36 19 -72 34 -98 41 -13 4 -23 11 -23 16
0 6 -5 7 -10 4 -6 -4 -17 -1 -25 5 -8 7 -15 9 -15 5 0 -5 -8 -1 -18 8 -10 10
-21 15 -24 12 -3 -4 -31 3 -61 14 -31 10 -58 16 -61 13 -3 -3 -6 1 -6 8 0 7
-3 10 -6 7 -4 -3 -15 -2 -26 4 -11 6 -27 12 -36 14 -9 2 -36 10 -59 18 -22 9
-44 13 -47 10 -3 -4 -6 -1 -6 5 0 7 -9 12 -20 12 -11 0 -20 4 -20 8 0 4 -11 9
-25 10 -14 1 -44 11 -67 22 -22 11 -45 17 -49 14 -5 -3 -9 0 -9 6 0 7 -7 10
-15 6 -8 -3 -15 -1 -15 4 0 6 -8 10 -18 10 -10 0 -22 3 -26 7 -4 5 -11 8 -14
8 -4 1 -17 6 -29 13 -13 7 -23 11 -23 8 0 -3 -25 6 -55 20 -31 13 -62 24 -70
24 -8 0 -15 3 -15 8 0 4 -17 12 -37 19 -21 6 -60 22 -88 34 -27 13 -52 24 -55
24 -8 3 -57 23 -103 44 -23 11 -46 20 -52 21 -5 1 -17 7 -25 15 -8 7 -24 15
-35 17 -11 1 -23 7 -26 11 -3 4 -16 9 -27 10 -12 1 -22 4 -22 8 0 7 -34 22
-52 24 -3 0 -10 4 -15 8 -9 9 -72 37 -76 34 -1 -1 -16 8 -33 20 -17 12 -33 20
-36 17 -3 -2 -11 2 -18 11 -7 8 -21 15 -31 15 -11 0 -19 5 -19 10 0 6 -9 10
-20 10 -11 0 -20 5 -20 10 0 6 -9 10 -19 10 -11 0 -21 4 -23 9 -1 5 -10 11
-18 13 -8 2 -17 5 -20 8 -15 15 -108 59 -114 53 -3 -3 -6 -1 -6 5 0 6 -21 21
-47 34 -27 13 -54 29 -61 35 -7 7 -24 16 -38 19 -13 3 -24 10 -24 16 0 5 -4 6
-10 3 -5 -3 -10 -1 -10 4 0 6 -7 11 -15 11 -8 0 -15 5 -15 11 0 5 -4 7 -10 4
-5 -3 -10 -2 -10 4 0 5 -16 15 -35 22 -19 7 -35 17 -35 21 0 4 -7 8 -15 8 -8
0 -15 5 -15 10 0 6 -5 10 -11 10 -6 0 -31 14 -56 30 -24 17 -48 30 -54 30 -5
0 -9 5 -9 11 0 5 -5 7 -10 4 -6 -3 -13 1 -16 9 -3 9 -10 14 -14 11 -4 -3 -10
2 -14 10 -3 8 -10 15 -16 15 -6 0 -38 18 -71 40 -33 22 -65 40 -70 40 -5 0 -9
4 -9 8 0 5 -12 15 -27 23 -16 8 -37 22 -47 32 -11 9 -24 17 -30 17 -5 0 -16 7
-25 15 -35 33 -79 65 -90 65 -6 0 -11 4 -11 8 0 4 -15 16 -32 26 -18 11 -40
26 -49 35 -9 9 -26 23 -39 31 -50 34 -100 75 -100 82 0 4 -7 8 -15 8 -8 0 -15
5 -15 10 0 6 -5 10 -10 10 -9 0 -48 31 -92 73 -10 9 -21 17 -25 17 -8 0 -54
39 -117 98 -16 15 -31 26 -33 25 -7 -6 -52 41 -47 49 3 4 -1 8 -9 8 -8 0 -32
18 -53 40 -22 22 -45 40 -52 40 -7 0 -10 5 -7 10 3 6 2 10 -2 10 -5 0 -41 32
-82 70 -40 39 -77 70 -82 70 -6 0 -7 5 -4 10 3 6 3 10 -2 10 -11 0 -133 119
-133 131 0 5 -6 9 -14 9 -8 0 -18 9 -21 20 -3 11 -12 20 -20 20 -8 0 -17 9
-20 20 -4 11 -11 18 -16 15 -5 -4 -9 -2 -9 3 0 6 -27 38 -60 73 -33 34 -60 64
-60 65 0 1 -17 20 -37 42 -21 22 -56 61 -78 87 -22 26 -51 59 -65 75 -38 43
-60 70 -60 74 0 2 -16 22 -35 43 -48 52 -57 63 -85 103 -13 19 -32 42 -42 51
-10 9 -18 24 -18 33 0 10 -4 15 -9 12 -5 -4 -15 7 -22 23 -7 16 -16 28 -19 26
-3 -2 -17 14 -30 36 -14 21 -28 39 -33 39 -4 0 -6 4 -3 9 3 5 -1 11 -9 15 -8
3 -15 12 -15 21 0 8 -4 15 -10 15 -5 0 -10 7 -10 15 0 8 -4 15 -10 15 -5 0
-16 12 -24 28 -8 15 -23 38 -35 51 -11 13 -18 28 -15 32 3 5 1 9 -3 9 -11 0
-73 86 -73 100 0 6 -3 10 -7 10 -8 0 -38 47 -41 63 -1 4 -7 14 -14 22 -32 35
-38 45 -38 60 0 9 -7 18 -15 21 -8 4 -15 12 -15 20 0 8 -5 14 -11 14 -5 0 -7
5 -4 10 3 6 2 10 -4 10 -5 0 -13 9 -16 20 -3 11 -12 26 -18 33 -7 7 -23 34
-37 60 -13 26 -28 47 -33 47 -4 0 -6 4 -3 9 3 5 -1 14 -9 21 -8 7 -15 17 -15
22 0 6 -9 22 -19 37 -11 15 -21 34 -23 41 -2 8 -11 23 -20 34 -10 11 -18 27
-18 37 0 9 -7 19 -15 23 -8 3 -14 9 -13 13 2 4 -6 24 -18 43 -11 19 -20 37
-20 40 0 3 -10 22 -22 43 -13 20 -21 37 -18 37 3 0 -2 9 -12 20 -9 12 -15 22
-12 24 3 2 -3 13 -13 24 -10 11 -20 26 -22 34 -9 38 -18 58 -27 58 -5 0 -6 5
-3 10 3 6 1 10 -6 10 -7 0 -10 3 -6 6 3 4 -1 13 -9 21 -8 8 -12 19 -9 24 4 5
1 9 -4 9 -6 0 -10 3 -9 8 2 11 -33 92 -41 92 -4 0 -8 6 -8 13 0 6 -12 36 -27
66 -14 30 -26 60 -26 66 0 6 -6 17 -12 24 -7 6 -13 15 -13 19 -2 18 -17 52
-24 52 -4 0 -8 7 -9 15 -1 8 -3 22 -4 30 -1 8 -5 15 -10 15 -4 0 -8 6 -8 14 0
7 -7 26 -14 42 -8 15 -13 31 -10 36 3 4 1 8 -4 8 -7 0 -50 98 -57 130 -1 3 -9
23 -19 45 -10 22 -19 45 -20 50 -5 19 -17 50 -27 67 -5 10 -9 25 -9 33 0 8 -5
15 -12 15 -6 0 -9 3 -5 6 5 6 -8 49 -33 109 -14 31 -24 69 -22 78 1 4 -2 7 -8
7 -6 0 -9 3 -8 8 1 4 -6 32 -17 62 -11 30 -20 58 -21 63 -1 4 -3 9 -4 12 -1 3
-4 10 -5 15 -1 6 -3 11 -5 13 -2 3 -11 38 -14 59 -1 9 -8 23 -15 32 -8 9 -10
16 -6 16 4 0 1 7 -6 17 -8 9 -13 18 -11 20 2 2 0 18 -4 36 -4 17 -9 39 -9 47
-1 8 -4 22 -7 30 -7 20 -30 151 -29 173 0 9 -5 17 -11 17 -5 0 -8 6 -5 14 3 7
0 24 -7 38 -7 13 -11 29 -8 36 2 6 0 12 -5 12 -6 0 -10 6 -11 13 -2 30 -13 62
-22 65 -6 2 -8 8 -4 13 3 5 0 9 -5 9 -6 0 -11 5 -11 11 0 5 6 7 13 4 6 -4 3 1
-7 9 -11 9 -16 16 -12 16 5 0 3 7 -4 15 -7 8 -9 15 -4 15 5 0 4 4 -2 8 -13 8
-47 72 -39 72 3 0 -3 10 -15 22 -11 12 -20 28 -20 35 0 7 -4 13 -10 13 -5 0
-10 6 -10 13 0 7 -9 19 -19 27 -11 7 -17 18 -14 23 3 5 -4 15 -16 23 -12 9
-19 19 -17 23 3 4 -6 15 -20 25 -13 11 -24 23 -24 28 0 13 -26 38 -39 38 -6 0
-10 3 -10 8 3 20 -3 31 -21 37 -11 3 -20 13 -20 21 0 8 -4 12 -10 9 -5 -3 -15
5 -22 19 -6 14 -16 26 -22 26 -6 0 -25 14 -43 30 -18 17 -34 30 -37 30 -4 0
-15 8 -25 18 -37 32 -50 42 -61 42 -5 0 -10 5 -10 10 0 6 -6 10 -13 10 -7 0
-22 8 -33 18 -11 9 -30 23 -43 30 -19 11 -22 11 -16 0 4 -7 -3 -2 -15 12 -12
14 -19 18 -15 10 5 -12 4 -12 -7 1 -7 9 -19 14 -27 11 -8 -3 -11 0 -7 7 4 7
-1 11 -13 11 -11 0 -23 5 -26 11 -4 6 -13 8 -20 5 -7 -2 -16 2 -19 10 -3 9
-10 13 -16 9 -5 -3 -20 0 -32 7 -13 6 -32 13 -43 15 -10 2 -22 7 -25 11 -5 7
-33 13 -62 13 -10 0 -18 4 -18 9 0 5 -8 9 -17 8 -10 0 -29 3 -43 6 -63 14
-117 22 -142 21 -16 -1 -28 1 -28 4 0 7 -277 11 -283 5z m33 -5045 c0 -10 8
-23 18 -28 9 -6 13 -11 9 -11 -4 0 -3 -6 3 -12 15 -18 90 -138 90 -144 0 -3 5
-10 10 -17 25 -29 99 -147 92 -147 -4 0 -2 -4 4 -8 16 -11 107 -142 98 -142
-4 0 3 -8 14 -19 12 -10 19 -21 15 -24 -3 -4 2 -9 11 -13 9 -3 14 -10 11 -14
-3 -4 2 -10 10 -14 8 -3 15 -12 15 -21 0 -8 3 -15 8 -15 4 0 18 -18 32 -40 14
-22 28 -40 32 -40 5 0 8 -7 8 -15 0 -8 5 -15 10 -15 6 0 10 -6 10 -12 0 -7 16
-30 35 -51 19 -21 33 -42 30 -47 -3 -5 4 -11 15 -15 11 -4 18 -10 16 -14 -3
-4 6 -19 20 -34 13 -14 24 -30 24 -34 0 -7 31 -45 84 -105 9 -10 16 -20 16
-23 0 -6 3 -10 43 -56 12 -14 36 -43 52 -65 17 -21 38 -46 48 -56 9 -10 15
-18 12 -18 -2 0 14 -19 35 -42 22 -24 42 -51 46 -60 3 -10 12 -18 20 -18 8 0
13 -4 10 -8 -3 -5 5 -18 17 -29 12 -11 33 -34 47 -52 14 -17 40 -47 58 -65 17
-19 32 -38 32 -43 0 -6 23 -30 50 -55 28 -25 50 -48 50 -52 0 -3 15 -20 33
-37 17 -17 31 -35 29 -40 -1 -5 5 -9 13 -9 8 0 15 -7 15 -15 0 -8 7 -15 15
-15 8 0 15 -6 15 -14 0 -8 9 -17 20 -21 11 -3 19 -9 17 -13 -1 -4 32 -41 73
-82 41 -41 74 -78 72 -82 -1 -5 2 -8 7 -8 16 0 240 -228 233 -236 -4 -4 -2 -4
5 -1 6 4 20 -4 31 -18 11 -14 25 -25 31 -25 6 0 11 -7 11 -17 0 -9 2 -14 5
-11 3 3 21 -10 41 -28 19 -19 39 -34 44 -34 6 0 9 -6 8 -12 -2 -7 3 -12 10
-10 6 1 12 -4 12 -11 0 -8 11 -20 25 -27 14 -7 25 -17 25 -22 0 -4 7 -8 15 -8
8 0 15 -7 15 -15 0 -8 12 -21 28 -29 15 -8 34 -24 42 -35 8 -12 19 -21 26 -21
6 0 24 -15 41 -32 16 -18 42 -43 57 -55 59 -45 110 -89 142 -120 17 -17 35
-29 38 -26 3 4 6 0 6 -7 0 -7 3 -11 6 -7 3 3 21 -10 40 -29 19 -19 38 -34 42
-34 4 0 25 -16 45 -35 20 -19 42 -35 47 -35 6 0 10 -4 10 -10 0 -5 5 -10 11
-10 7 0 19 -8 28 -18 24 -26 88 -72 100 -72 6 0 11 -7 11 -16 0 -8 5 -12 10
-9 6 3 10 1 10 -5 0 -6 5 -8 10 -5 6 3 10 -1 10 -10 0 -9 5 -15 12 -13 7 3 24
-7 39 -21 37 -35 59 -53 59 -47 0 3 12 -6 26 -19 15 -14 30 -22 35 -19 5 3 9
-3 9 -12 0 -10 3 -14 6 -11 10 10 45 -13 38 -25 -4 -6 -1 -9 7 -6 7 2 22 -4
34 -14 11 -10 48 -37 83 -60 34 -22 62 -44 62 -49 0 -5 7 -6 15 -3 8 4 15 3
15 0 0 -11 -34 -45 -40 -41 -4 3 -15 -4 -25 -15 -10 -11 -24 -20 -32 -20 -7 0
-13 -4 -13 -10 0 -5 -7 -10 -15 -10 -8 0 -15 -5 -15 -11 0 -5 -4 -8 -9 -5 -5
4 -11 2 -13 -2 -3 -8 -47 -40 -107 -77 -9 -5 -20 -16 -24 -22 -4 -7 -15 -13
-22 -13 -8 0 -15 -5 -15 -12 0 -6 -3 -8 -7 -5 -3 4 -13 -2 -20 -13 -8 -11 -18
-18 -23 -15 -5 3 -13 -3 -19 -12 -6 -10 -11 -14 -11 -9 0 5 -9 -1 -19 -13 -12
-14 -25 -20 -32 -15 -7 4 -9 3 -5 -4 3 -5 -10 -20 -29 -32 -19 -12 -35 -26
-35 -31 0 -6 -5 -7 -10 -4 -6 3 -13 -1 -16 -9 -3 -9 -10 -16 -16 -16 -5 0 -15
-6 -23 -12 -7 -7 -26 -22 -41 -33 -16 -11 -39 -30 -51 -42 -13 -12 -23 -20
-23 -17 0 3 -6 -1 -14 -8 -36 -35 -111 -93 -118 -91 -4 2 -8 -5 -8 -14 0 -9
-3 -14 -6 -10 -3 3 -17 -4 -30 -16 -13 -12 -42 -38 -64 -57 -23 -19 -57 -52
-78 -72 -20 -21 -41 -38 -47 -38 -6 0 -17 -9 -25 -20 -8 -11 -20 -20 -28 -20
-7 0 -11 -4 -7 -9 3 -5 -4 -12 -15 -16 -11 -4 -18 -11 -15 -16 4 -5 3 -9 -2
-9 -4 0 -30 -20 -56 -45 -27 -25 -53 -45 -57 -45 -5 0 -12 -9 -15 -21 -4 -11
-9 -18 -12 -16 -2 3 -36 -27 -75 -67 -39 -39 -74 -70 -79 -69 -5 2 -9 -1 -9
-7 0 -5 -26 -36 -57 -68 -32 -32 -80 -82 -106 -110 -27 -29 -53 -52 -59 -52
-6 0 -9 -2 -6 -5 5 -5 -41 -60 -129 -152 -18 -19 -33 -39 -33 -43 0 -5 -9 -12
-21 -15 -11 -4 -18 -9 -15 -12 3 -4 -10 -21 -29 -40 -19 -18 -32 -33 -30 -33
5 0 -22 -33 -70 -86 -44 -48 -69 -79 -67 -81 1 -2 -6 -11 -15 -21 -38 -38 -78
-95 -75 -106 2 -6 1 -8 -3 -4 -8 8 -55 -44 -55 -62 0 -6 -4 -9 -9 -6 -5 3 -16
-10 -25 -29 -10 -20 -21 -33 -27 -30 -5 4 -9 -3 -9 -15 0 -12 -4 -18 -10 -15
-5 3 -10 2 -10 -4 0 -5 -15 -30 -34 -54 -19 -25 -32 -48 -29 -51 4 -3 -2 -6
-12 -6 -10 0 -16 -3 -13 -6 3 -3 -5 -17 -18 -31 -13 -14 -24 -32 -24 -39 0 -7
-4 -14 -8 -16 -13 -5 -102 -134 -102 -147 0 -7 -4 -10 -9 -7 -5 3 -15 -2 -22
-11 -10 -12 -10 -14 -1 -9 19 12 14 -1 -13 -30 -13 -14 -30 -39 -37 -55 -7
-16 -16 -29 -20 -29 -4 0 -16 -17 -27 -38 -11 -21 -31 -50 -45 -63 -14 -13
-26 -28 -26 -34 0 -5 5 -3 10 5 5 8 10 11 10 7 0 -5 -16 -27 -35 -49 -19 -23
-32 -45 -29 -49 3 -5 2 -9 -3 -9 -4 0 -26 -30 -48 -66 -22 -36 -45 -72 -52
-79 -7 -7 -9 -15 -6 -19 4 -3 1 -6 -6 -6 -7 0 -9 -4 -6 -10 3 -5 1 -10 -4 -10
-6 0 -11 -5 -11 -11 0 -6 -7 -17 -15 -26 -8 -8 -13 -18 -10 -23 3 -4 -2 -11
-11 -14 -8 -3 -12 -10 -9 -16 3 -5 1 -10 -4 -10 -6 0 -11 -5 -11 -11 0 -6 -7
-17 -15 -26 -8 -8 -13 -19 -10 -24 4 -5 1 -9 -4 -9 -6 0 -11 -7 -11 -15 0 -8
-4 -15 -10 -15 -5 0 -10 -5 -10 -11 0 -6 -10 -25 -22 -42 -12 -17 -16 -27 -7
-22 14 9 -18 -34 -36 -47 -5 -4 -6 -8 -2 -8 5 0 -1 -12 -12 -26 -11 -15 -18
-30 -16 -34 6 -9 -12 -23 -33 -26 -6 -1 -9 2 -6 8 3 5 -2 18 -12 28 -26 26
-37 41 -53 72 -8 15 -22 36 -32 47 -10 10 -16 21 -13 23 2 3 -7 17 -21 32 -14
15 -25 31 -25 36 0 9 -6 18 -52 72 -10 12 -18 24 -18 28 0 6 -10 20 -49 66 -5
7 -7 15 -4 18 4 3 1 6 -5 6 -7 0 -12 5 -12 11 0 7 -11 22 -25 35 -14 13 -26
27 -26 31 0 5 -9 18 -19 31 -11 12 -20 25 -20 27 0 6 -11 20 -37 50 -7 7 -13
18 -13 23 0 6 -7 12 -15 16 -8 3 -15 12 -15 21 0 8 -5 15 -11 15 -5 0 -7 5 -4
10 3 6 -1 10 -9 10 -9 0 -18 11 -22 25 -3 13 -15 27 -25 30 -11 4 -17 10 -15
14 3 4 -6 19 -20 34 -13 14 -24 29 -24 33 0 7 -4 12 -54 66 -14 16 -22 28 -18
28 3 0 -4 7 -16 16 -12 8 -20 20 -17 25 4 5 -1 9 -9 9 -9 0 -16 5 -16 10 0 6
-13 24 -30 41 -16 18 -27 37 -23 43 3 6 3 8 -1 4 -9 -8 -45 24 -39 35 2 4 -3
10 -11 13 -9 3 -14 10 -11 14 3 5 -4 12 -16 15 -11 4 -18 9 -15 12 2 3 -11 20
-30 39 -19 19 -34 37 -34 40 0 3 -6 11 -12 19 -7 7 -35 38 -63 69 -27 31 -71
79 -97 107 -27 28 -48 55 -48 60 0 6 -4 7 -10 4 -5 -3 -10 -1 -10 5 0 5 -27
37 -60 71 -33 33 -60 62 -60 64 0 10 -49 52 -54 47 -3 -3 -6 0 -6 7 0 10 -264
281 -275 281 -2 0 -32 28 -66 63 -34 34 -67 61 -73 59 -6 -2 -8 -1 -4 3 8 8
-24 43 -34 38 -5 -2 -8 4 -8 13 0 10 -2 15 -5 12 -3 -3 -25 13 -49 36 -98 93
-125 116 -136 116 -6 0 -8 5 -5 10 3 6 -1 10 -10 10 -9 0 -13 4 -10 10 3 6 1
10 -4 10 -11 0 -50 31 -97 78 -13 12 -28 22 -34 22 -5 0 -10 7 -10 16 0 10 -5
14 -16 10 -8 -3 -13 -2 -10 2 3 5 -5 15 -16 23 -12 8 -35 26 -51 41 -16 15
-33 25 -38 22 -5 -3 -9 0 -9 6 0 6 -7 18 -15 26 -8 9 -15 13 -15 9 0 -3 -11 4
-24 17 -13 13 -36 32 -51 43 -16 11 -34 26 -41 33 -7 6 -15 12 -18 12 -3 0
-14 8 -24 18 -38 35 -60 50 -66 45 -3 -4 -6 1 -6 10 0 9 -11 19 -25 23 -14 4
-24 9 -21 11 3 3 -18 21 -47 41 -28 19 -60 44 -71 54 -11 10 -24 18 -29 18 -5
0 -20 11 -33 26 -13 14 -24 21 -24 17 0 -4 -4 -3 -8 3 -4 6 -35 29 -69 52 -34
23 -65 46 -68 52 -4 6 -11 8 -16 5 -5 -4 -9 1 -9 9 0 9 -9 16 -21 16 -11 0
-17 5 -14 10 3 6 -3 10 -14 10 -11 0 -24 6 -28 13 -4 7 -42 35 -83 62 -41 28
-84 58 -94 67 -11 10 -26 18 -33 18 -7 0 -13 5 -13 10 0 6 -6 10 -14 10 -7 0
-19 7 -26 15 -7 8 -15 13 -19 10 -4 -2 -14 5 -21 16 -8 10 -20 19 -27 19 -7 0
-13 5 -13 11 0 5 -4 7 -10 4 -5 -3 -10 -1 -10 4 0 6 -6 11 -12 11 -24 1 -49
27 -42 44 3 9 9 14 14 11 4 -2 16 4 27 15 12 10 24 16 27 13 3 -4 6 -1 6 5 0
7 5 12 11 12 7 0 18 8 26 18 9 10 12 11 7 2 -7 -15 -5 -14 54 40 12 11 22 18
22 15 0 -6 9 1 54 40 16 14 33 25 38 25 5 0 7 4 4 9 -3 4 6 13 19 19 14 7 25
16 25 22 0 6 5 8 10 5 6 -3 13 1 16 9 3 9 10 13 15 10 5 -3 9 0 9 6 0 6 4 9 9
6 5 -3 12 1 15 10 3 8 10 12 16 9 5 -3 10 -1 10 5 0 6 8 14 18 17 9 4 27 16
39 27 32 30 53 48 101 85 23 18 39 38 36 43 -4 6 -3 8 3 5 5 -4 20 3 31 14 12
11 22 17 22 13 0 -3 9 4 20 17 10 13 19 20 20 15 0 -4 9 2 21 15 11 13 18 17
14 9 -4 -8 2 -5 13 8 11 12 23 22 26 22 4 0 21 15 39 33 17 17 35 31 39 30 4
-2 8 0 8 5 0 4 10 18 21 32 11 14 17 18 13 10 -5 -8 11 4 35 28 23 23 49 42
57 42 9 0 13 4 10 9 -3 5 2 15 11 22 14 12 16 12 9 -1 -4 -8 1 -5 12 8 11 12
24 22 29 22 5 0 15 9 23 20 8 11 20 20 28 20 7 0 12 3 10 8 -2 4 10 21 26 37
16 17 26 23 21 15 -4 -8 6 0 24 18 17 18 31 38 31 43 0 6 5 7 10 4 6 -3 10 1
10 10 0 9 4 14 9 11 5 -3 12 1 15 10 4 9 9 14 12 11 3 -3 18 6 34 21 15 15 53
49 83 76 31 27 54 54 50 60 -3 6 -3 8 1 5 9 -8 65 43 59 54 -2 4 0 7 6 7 9 0
53 40 163 145 20 19 42 35 48 35 6 0 8 4 5 10 -3 5 3 15 15 22 11 7 20 19 20
26 0 7 5 10 10 7 6 -3 10 -1 10 5 0 6 18 29 40 51 22 22 40 45 40 50 0 5 4 8
9 7 4 -2 44 33 87 78 81 83 117 124 110 124 -3 0 17 21 42 47 26 26 46 51 44
57 -2 6 -1 8 3 4 9 -9 45 23 39 34 -3 5 0 7 8 6 7 -2 12 3 10 10 -1 6 4 12 11
12 12 0 47 34 47 46 0 3 6 11 13 18 6 7 26 31 42 52 17 21 38 46 48 56 9 10
15 18 12 18 -3 0 17 22 43 48 76 78 112 120 124 147 6 13 15 22 19 19 5 -3 9
2 9 10 0 9 5 16 12 16 6 0 9 3 6 6 -6 6 4 20 55 74 15 16 27 34 27 40 0 6 4 9
9 5 5 -3 12 3 16 14 3 11 13 22 21 25 8 3 13 10 9 15 -3 5 4 12 15 16 11 4 18
10 15 15 -3 4 2 11 11 14 9 4 14 9 11 12 -2 3 6 17 19 31 13 14 21 29 18 34
-3 5 -1 9 3 9 5 0 22 20 37 45 16 25 33 45 38 45 5 0 7 4 4 9 -3 5 1 12 10 15
8 3 12 11 8 17 -4 7 -3 9 3 6 9 -6 43 26 43 39 0 4 10 15 22 25 11 11 17 19
13 19 -4 0 2 9 15 20 13 11 19 20 15 20 -5 0 0 10 11 23 11 12 26 34 34 49 7
15 20 36 29 46 9 10 27 33 40 52 14 19 31 39 38 43 7 5 11 12 8 17 -3 5 4 14
15 20 11 6 18 15 15 21 -4 5 1 12 9 15 9 3 16 12 16 18 0 7 9 22 19 33 11 12
17 24 14 27 -4 3 -2 6 4 6 6 0 16 14 22 30 5 17 15 30 20 30 6 0 10 3 9 8 -1
4 3 17 10 29 14 26 42 21 42 -8z m1191 -1606 c13 -16 12 -17 -3 -4 -10 7 -18
15 -18 17 0 8 8 3 21 -13z"/>
</g>
</svg>
